<svg id="Component_1_1" data-name="Component 1 – 1" xmlns="http://www.w3.org/2000/svg" width="353.103" height="326.79" viewBox="0 0 353.103 326.79">
  <path id="Path_1" data-name="Path 1" d="M924.435,56.618s-10.406-7.909-32.467,2.914S854.089,61.2,854.089,61.2l2.5,36.213s22.477,8.741,43.29-3.746,27.472,0,27.472,0Z" transform="translate(-850.707 -46.212)" fill="#6c63ff"/>
  <path id="Path_2" data-name="Path 2" d="M291.977,292.975a122.031,122.031,0,0,0,76.587,113.234,119.424,119.424,0,0,0,12.652,4.284,122.743,122.743,0,0,0,65.409.008q4.389-1.218,8.641-2.751a120.454,120.454,0,0,0,18.644-8.562,121.973,121.973,0,0,0-54.3-228.044q-2.822-.131-5.669-.129-3.128,0-6.223.154A121.944,121.944,0,0,0,291.977,292.975Z" transform="translate(-238.229 -117.319)" fill="#6c63ff"/>
  <path id="Path_3" data-name="Path 3" d="M874.632,95.115a51.539,51.539,0,0,0,26.755-7.123c8.412-5.047,15.385-6.715,20.725-4.957a10.9,10.9,0,0,1,6.461,5.484l1.082,2.6-4.329-42.831-.112-.106c-.368-.35-9.275-8.427-32.582,3.007-22.828,11.2-39.474,1.869-39.639,1.773l-.677-.391.053.78,2.658,38.535.246.1A59.516,59.516,0,0,0,874.632,95.115Zm43.05-13.588c-4.742,0-10.343,1.924-16.723,5.752-20.386,12.231-42.564,4.934-45.138,4.018l-2.57-37.267c3.379,1.629,19.1,8.035,39.748-2.092,21.421-10.509,30.452-4.119,31.531-3.246l3.825,37.845a11.985,11.985,0,0,0-5.982-4.293A14.915,14.915,0,0,0,917.682,81.527Z" transform="translate(-852.316 -40.908)" fill="#3f3d56"/>
  <path id="Path_4" data-name="Path 4" d="M395.467,389.468a130.07,130.07,0,0,0,34.807-4.721c3.138-.87,6.234-1.856,9.2-2.93A129.876,129.876,0,0,0,401.5,129.868c-4.021-.187-8.279-.186-12.662.026a129.9,129.9,0,0,0-41.666,250.292,127.911,127.911,0,0,0,13.449,4.552A130.133,130.133,0,0,0,395.467,389.468Zm0-258.9c2.032,0,4.05.046,6,.137a127.768,127.768,0,0,1,50.954,13.084,129.1,129.1,0,0,1-13.225,237.25c-2.949,1.067-6.025,2.047-9.142,2.911a129.863,129.863,0,0,1-69.2-.009,126.96,126.96,0,0,1-13.361-4.523,129.058,129.058,0,0,1,41.4-248.688c2.232-.108,4.448-.163,6.585-.163Z" transform="translate(-217.261 -92.268)" fill="#3f3d56"/>
  <rect id="Rectangle_65" data-name="Rectangle 65" width="190.452" height="0.832" transform="translate(162.651 325.363)" fill="#3f3d56"/>
  <path id="Path_5" data-name="Path 5" d="M189.211,814.754l.447-.167c.1-.037,9.869-3.78,14.445-12.268s2.336-18.708,2.313-18.81l-.105-.465-.447.167c-.1.037-9.868,3.78-14.445,12.268s-2.336,18.708-2.313,18.81Zm14.159-12.831c-3.87,7.177-11.59,10.855-13.547,11.7-.372-2.1-1.538-10.575,2.328-17.745s11.59-10.853,13.547-11.7c.372,2.1,1.538,10.575-2.328,17.745Z" transform="translate(131.357 -488.693)" fill="#3f3d56"/>
  <path id="Path_6" data-name="Path 6" d="M169.377,819.146c-8.225,4.949-11.393,14.778-11.393,14.778s10.168,1.806,18.393-3.143S187.77,816,187.77,816,177.6,814.2,169.377,819.146Z" transform="translate(162.586 -508.499)" fill="#6c63ff"/>
  <ellipse id="Ellipse_1" data-name="Ellipse 1" cx="38.964" cy="38.964" rx="38.964" ry="38.964" transform="translate(171.619 21.818)" fill="#2f2e41"/>
  <ellipse id="Ellipse_2" data-name="Ellipse 2" cx="27.605" cy="27.605" rx="27.605" ry="27.605" transform="translate(174.865 44.026)" fill="#a0616a"/>
  <path id="Path_7" data-name="Path 7" d="M447.837,232.229s4.09,32.718,18.915,39.363-40.9,3.067-40.9,3.067,0-29.65-2.045-30.673S447.837,232.229,447.837,232.229Z" transform="translate(-223.385 -154.463)" fill="#a0616a"/>
  <path id="Path_8" data-name="Path 8" d="M423.912,782.176l2.045,10.736s28.628,16.87,14.825,21.471-30.673-19.937-30.673-19.937l3.067-12.269Z" transform="translate(-193.326 -488.167)" fill="#a0616a"/>
  <path id="Path_9" data-name="Path 9" d="M597.633,530.213,575.14,554.24,513.283,511.3S527.6,500.052,532.2,500.052,597.633,530.213,597.633,530.213Z" transform="translate(-386.984 -316.976)" fill="#a0616a"/>
  <path id="Path_10" data-name="Path 10" d="M845.038,189.061s-6.646-46.52-18.4-42.942,6.646,49.588,6.646,49.588Z" transform="translate(-756.057 -102.093)" fill="#a0616a"/>
  <path id="Path_11" data-name="Path 11" d="M395.977,315.582s22.307-3.578,30.58,0,33.262,6.426,36.359,2.446,30.7,9.312,30.7,14.935-59.812,90.485-59.812,90.485-61.857-17.381-70.036-35.785c0,0,7.157-5.112,7.157-9.2s3.578-8.179,3.578-8.179-4.09-10.224,3.067-19.426S395.977,315.582,395.977,315.582Z" transform="translate(-224.179 -204.076)" fill="#d0cde1"/>
  <path id="Path_12" data-name="Path 12" d="M703.056,276.969l-6.646-1.534s-16.359,4.09-27.605,17.892-30.673,18.4-30.673,18.4l-23.516-63.9-19.426,6.646s15.336,81.283,32.718,82.305,60.323-17.892,60.323-17.892Z" transform="translate(-524.613 -163.93)" fill="#d0cde1"/>
  <path id="Path_13" data-name="Path 13" d="M401.745,349.239s10.735.511,10.735,9.713-1.534,40.9-10.735,54.7-17.381,44.987-17.892,45.5-10.224,64.924-10.224,64.924L357.27,522.54l3.067-80.26,15.848-40.9Z" transform="translate(-140.486 -225.464)" fill="#d0cde1"/>
  <path id="Path_14" data-name="Path 14" d="M508.078,576.992a122.22,122.22,0,0,0,49.662,36.775l2.585-5.628,10.044,9.9a122.743,122.743,0,0,0,65.409.008l4.3-2.751-23.006-26.586s-.512-13.291,0-15.335,7.222-20.6,7.222-20.6c-23.314-1.478-56.651-31.052-64.372-38.182-1.061-.982-1.64-1.54-1.64-1.54-42.94,6.131-49.075,56.231-49.075,56.231Z" transform="translate(-427.382 -324.867)" fill="#2f2e41"/>
  <ellipse id="Ellipse_3" data-name="Ellipse 3" cx="2.497" cy="5.203" rx="2.497" ry="5.203" transform="translate(227.739 67.432)" fill="#a0616a"/>
  <ellipse id="Ellipse_4" data-name="Ellipse 4" cx="16.234" cy="16.234" rx="16.234" ry="16.234" transform="translate(229.82 7.492)" fill="#2f2e41"/>
  <path id="Path_15" data-name="Path 15" d="M384.614,50.689a16.233,16.233,0,0,0-14.358-16.122,16.234,16.234,0,1,1,0,32.245A16.233,16.233,0,0,0,384.614,50.689Z" transform="translate(-121.494 -34.456)" fill="#2f2e41"/>
  <rect id="Rectangle_66" data-name="Rectangle 66" width="5.827" height="61.188" transform="translate(72.063 9.574)" fill="#2f2e41"/>
  <path id="Path_16" data-name="Path 16" d="M509.647,135.639s-7.492,15.817-16.65,16.234-43.289-6.244-43.289-6.244l11.239-23.31,29.97,3.746Z" transform="translate(-274 -87.77)" fill="#2f2e41"/>
</svg>
